<?xml version="1.0" encoding="utf-8"?>
<!-- Generator: Adobe Illustrator 23.0.0, SVG Export Plug-In . SVG Version: 6.00 Build 0)  -->
<svg version="1.1" id="Layer_1" xmlns="http://www.w3.org/2000/svg" xmlns:xlink="http://www.w3.org/1999/xlink" x="0px" y="0px"
	 viewBox="0 0 89.1 112.6" style="enable-background:new 0 0 89.1 112.6;" xml:space="preserve">
<style type="text/css">
	.st0{fill:#7C7C7C;}
</style>
<g id="Specifications">
</g>
<g id="Artwork">
	<g>
		<polygon class="st0" points="50.8,67 48.8,67 48.8,95.3 40.3,95.3 40.3,67 38.3,67 38.3,84.8 16.8,84.8 16.8,86.8 38.3,86.8 
			38.3,95.3 27.3,95.3 27.3,97.3 61.9,97.3 61.9,95.3 50.8,95.3 50.8,86.8 72.3,86.8 72.3,84.8 50.8,84.8 		"/>
		<path class="st0" d="M75.8,10.3C66.5,1.2,54.2,0,44.6,0C22.5,0,0,6.7,0,56.1C0,77.9,4.4,93,13.4,102c9.3,9.3,21.6,10.6,31.2,10.6
			s21.9-1.2,31.2-10.6c9-9,13.4-24.1,13.4-45.9C89.1,34.3,84.8,19.3,75.8,10.3z M74.4,100.6c-8.8,8.8-20.5,10-29.8,10
			s-21-1.1-29.8-10C6.2,91.9,2,77.4,2,56.1C2,8.4,23.5,2,44.6,2c9.3,0,21.1,1.1,29.8,9.8c8.6,8.6,12.8,23.1,12.8,44.3
			C87.1,77.4,83,91.9,74.4,100.6z"/>
		<path class="st0" d="M44.6,6.2c-20,0-38.4,6.1-38.4,49.9c0,44.2,18.5,50.3,38.4,50.3S83,100.3,83,56.1C83,12.2,64.5,6.2,44.6,6.2z
			 M44.6,105.4c-19.4,0-37.4-6-37.4-49.3c0-40.6,15-48.9,37.4-48.9S82,15.5,82,56.1C82,99.4,64,105.4,44.6,105.4z"/>
		<rect x="27.3" y="15.3" class="st0" width="34.6" height="2"/>
		<polygon class="st0" points="38.3,46.9 40.3,46.9 40.3,25.8 16.8,25.8 16.8,27.8 38.3,27.8 		"/>
		<path class="st0" d="M60.5,36.2V51H28.7V36.2H15.4v41.6h13.3V62.9h31.8v14.9h13.3V36.2H60.5z M70.9,75h-7.7V60.1H25.9V75h-7.7V39
			h7.7v14.9h37.4V39h7.7V75z"/>
		<polygon class="st0" points="48.8,46.9 50.8,46.9 50.8,27.8 72.3,27.8 72.3,25.8 48.8,25.8 		"/>
	</g>
</g>
</svg>
