<?xml version="1.0" encoding="utf-8"?>
<!-- Generator: Adobe Illustrator 23.0.0, SVG Export Plug-In . SVG Version: 6.00 Build 0)  -->
<svg version="1.1" xmlns="http://www.w3.org/2000/svg" xmlns:xlink="http://www.w3.org/1999/xlink" x="0px" y="0px"
	 viewBox="0 0 425.45 194.99" style="enable-background:new 0 0 425.45 194.99;" xml:space="preserve">
<style type="text/css">
	.st0{fill:#CCD2DC;}
	.st1{fill:#29323A;}
	.st2{fill:none;stroke:#CCD2DC;stroke-width:0.5;stroke-miterlimit:10;}
	.st3{fill:#FF7900;}
	.st4{fill:#E8E3D6;}
	.st5{fill:#FFFFFF;}
</style>
<g id="Specifications">
</g>
<g id="Artwork">
	<g>
		<g>
			<path class="st1" d="M49.34,184.48l11.53-5.51h0.42v15.45h-4.38v-9.16l-7.57,3.27V184.48z"/>
			<path class="st1" d="M71.75,184.48l11.48-5.51h0.47v15.45h-4.38v-9.16l-7.57,3.27V184.48z"/>
			<path class="st1" d="M112.79,179.01h13.85c4.25,0,5.74,0.51,6.78,1.54c0.7,0.7,0.95,1.54,0.95,2.51c0,1.78-0.95,2.99-3.5,3.52
				c2.47,0.44,3.72,1.45,3.72,3.5c0,0.92-0.22,1.85-0.97,2.6c-1.01,1.01-2.66,1.74-7.13,1.74h-13.69V179.01z M116.93,182.29v2.8
				h9.99c1.32,0,2.31-0.07,2.77-0.53c0.18-0.18,0.31-0.44,0.31-0.86c0-0.31-0.07-0.59-0.31-0.84c-0.46-0.46-1.45-0.57-2.8-0.57
				H116.93z M126.86,191.18c1.45,0,2.53-0.11,3.04-0.62c0.26-0.26,0.33-0.57,0.33-0.9c0-0.46-0.15-0.75-0.33-0.92
				c-0.51-0.51-1.58-0.57-3.04-0.57h-9.93v3.02H126.86z"/>
			<path class="st1" d="M154.16,178.92h5.63l11.07,15.5h-5.06l-2.09-2.99h-13.69l-2.09,2.99h-4.84L154.16,178.92z M152.25,188.23
				h9.22l-4.6-6.58L152.25,188.23z"/>
			<path class="st1" d="M199.93,190.88v3.54h-19.59v-15.41h4.38v11.86H199.93z"/>
			<path class="st1" d="M240.99,179.01v15.41h-4.34l-0.07-12.35l-8.14,12.35h-5.72l-8.23-12.41v12.41h-4.16v-15.41h7.07l8.28,12.81
				l8.23-12.81H240.99z"/>
			<path class="st1" d="M253.9,181.21c1.5-1.5,4.25-2.77,10.76-2.77c6.52,0,9.27,1.28,10.76,2.77c1.45,1.45,2.07,3.3,2.07,5.5
				s-0.62,4.05-2.07,5.5c-1.5,1.5-4.25,2.77-10.76,2.77c-6.52,0-9.27-1.28-10.76-2.77c-1.45-1.45-2.07-3.3-2.07-5.5
				S252.45,182.67,253.9,181.21z M271.86,183.44c-0.9-0.9-2.8-1.67-7.2-1.67c-4.4,0-6.3,0.77-7.2,1.67
				c-0.66,0.66-1.17,1.63-1.17,3.28s0.51,2.62,1.17,3.28c0.9,0.9,2.8,1.67,7.2,1.67c4.4,0,6.3-0.77,7.2-1.67
				c0.66-0.66,1.17-1.63,1.17-3.28S272.52,184.1,271.86,183.44z"/>
			<path class="st1" d="M309.03,187.75c-0.88,0.88-2.11,1.45-4.75,1.65l7.77,4.95v0.07h-6.41l-7.42-4.95h-5.5v4.95h-4.38v-15.41
				h13.43c4.64,0,6.21,0.55,7.33,1.67c0.97,0.97,1.23,2.31,1.23,3.52C310.32,185.37,310.08,186.69,309.03,187.75z M301.7,182.56
				h-8.98v3.68h8.98c2.03,0,3.21-0.15,3.79-0.73c0.29-0.29,0.44-0.73,0.44-1.17c0-0.51-0.13-0.88-0.46-1.21
				C304.97,182.64,303.94,182.56,301.7,182.56z"/>
			<path class="st1" d="M330.34,178.92h5.63l11.07,15.5h-5.06l-2.09-2.99H326.2l-2.09,2.99h-4.84L330.34,178.92z M328.43,188.23
				h9.22l-4.6-6.58L328.43,188.23z"/>
			<path class="st1" d="M376.11,190.88v3.54h-19.59v-15.41h4.38v11.86H376.11z"/>
		</g>
		<path class="st1" d="M10.49,91.58H0v52.83h10.49v-22.53h55.93v22.53h10.49V91.58H66.42v21.91H10.49V91.58z M129.43,91.58h-14.06
			l35.95,31.34v21.48h10.49v-21.64l36.02-31.18h-13.58l-27.4,24.03L129.43,91.58z M306.21,99.98c4.55,4.55,6.76,10.44,6.76,18.02
			c0,7.57-2.21,13.47-6.76,18.02c-5.57,5.57-15.97,8.4-30.91,8.4h-39V91.58h39C290.24,91.58,300.64,94.41,306.21,99.98z M302.41,118
			c0-5.57-1.4-9.57-4.42-12.59c-3.71-3.71-11.42-5.59-22.92-5.59h-28.28v36.36h28.28c11.5,0,19.22-1.88,22.92-5.59
			C301,127.57,302.41,123.57,302.41,118z M425.45,99.82v-8.23h-69.06v52.83h69.06v-8.23H366.8v-14.45h57.56v-8.08H366.8V99.82
			H425.45z"/>
		<path class="st1" d="M168.07,9.08c0.16-1.94,0.47-3.8,2.41-3.65c2.48,0.23,1.86,2.95,1.09,8.93s-3.34,37.02-5.05,41.45
			c-1.32,3.42-2.25,4.35-3.73,4.35c-1.47,0-3.34-1.63-7.37-9.7c-4.42-8.93-10.71-25.23-14.9-35.39c-1.4-3.34-2.25-3.03-1.16-4.42
			c0.7-0.93,0.85-1.47,3.26-0.78c2.56,0.7,36.79,8.46,53.01,8.46c6.21,0,11.18-1.63,11.1,1.55c-0.08,3.26-8.23,2.41-13.19,2.02
			s-44.71-6.36-49.6-7.84c0,0,4.35,13.43,8.77,23.36c1.55,3.42,8.07,16.84,8.77,17.77c1.16,1.55,1.4,2.02,2.17-0.54
			C164.42,52.08,166.98,24.13,168.07,9.08z M198.34,41.83c-4.11,1.79-3.1,4.04-0.78,3.57c2.33-0.47,13.74-8.85,20.65-29.18
			c6.91-20.34-0.47-17.77-1.94-12.42s-23.67,52.47-23.91,52.93c-0.23,0.47-0.54,1.16-0.23,1.55c0.31,0.39,1.09,1.79,2.02,1.09
			c0.93-0.7,16.07-12.34,19.71-13.66l-1.09-0.31c0,0,3.96,14.05,17.77,14.05c13.82,0,37.8-11.18,37.8-17.93s-13.74-2.72-13.74,7.37
			c0,6.83,8.3,11.18,18.94,11.18c15.6,0,37.18-14.75,34.54-17.62c-1.86-2.02-4.97,2.87-12.65,7.68c-5.67,3.49-14.13,6.75-21.34,6.75
			c-12.96,0-15.52-4.35-15.52-9.55s6.99-6.13,5.59-3.88c-1.4,2.25-18.71,12.96-32.91,12.96s-12.81-17.85-19.02-13.35
			s-15.68,10.17-15.68,10.17l1.09,0.31l19.87-45.72C218.29,8.07,208.2,38.11,198.34,41.83z"/>
	</g>
</g>
</svg>
