<?xml version="1.0" encoding="utf-8"?>
<!-- Generator: Adobe Illustrator 23.0.0, SVG Export Plug-In . SVG Version: 6.00 Build 0)  -->
<svg version="1.1" id="Layer_1" xmlns="http://www.w3.org/2000/svg" xmlns:xlink="http://www.w3.org/1999/xlink" x="0px" y="0px"
	 viewBox="0 0 510.2 170.1" style="enable-background:new 0 0 510.2 170.1;" xml:space="preserve">
<style type="text/css">
	.st0{fill:#FFFFFF;}
</style>
<g>
	<path class="st0" d="M61.8,82.6c6,0,11.2,5,11.2,11.6c0,6-5.3,11.2-11.2,11.2s-11.2-5.3-11.2-11.2C50.6,87.5,55.9,82.6,61.8,82.6z"
		/>
	<polygon class="st0" points="18.8,140.8 39.3,113 41,113.6 43,140.8 	"/>
	<path class="st0" d="M246.4,84.9c2.3-15.9,13.6-23.8,27.4-23.5v19.8c-11.9-3.6-22.5-2.6-27.1,4L246.4,84.9z"/>
	<path class="st0" d="M283.1,64.4l21.8-2.3l0.7,0.3v50.9c0,11.6,3,15.9,12.6,15.9c4.3,0,7.6-1,10.3-3v0.7
		c-4,7.9-11.2,14.9-23.5,14.9c-14.6,0-21.8-8.3-21.8-23.5V64.4z"/>
	<polygon class="st0" points="332.7,64.4 354.5,62.1 354.8,62.4 354.8,140.8 332.7,140.8 	"/>
	<path class="st0" d="M133.6,64.4l21.8-2.3l0.7,0.3v50.9c0,11.6,3,15.9,12.6,15.9c4.3,0,7.6-1,10.3-3v0.7
		c-4,7.9-11.2,14.9-23.5,14.9c-14.6,0-21.8-8.3-21.8-23.5V64.4z"/>
	<polygon class="st0" points="183.2,64.4 205,62.1 205.3,62.4 205.3,140.8 183.2,140.8 	"/>
	<polygon class="st0" points="220.9,64.4 242.7,62.1 243,62.4 243,140.8 220.9,140.8 	"/>
	<polygon class="st0" points="370.7,64.4 392.5,62.1 392.9,62.4 392.9,140.8 370.7,140.8 	"/>
	<path class="st0" d="M420,140.8V88.2c0-9.6-2.6-14.2-12.6-14.2c-3.6,0-6.9,0.7-10.3,2.3v-0.7c5.6-7.6,15.9-14.2,26.1-14.2
		c14.9,0,18.5,9.3,18.5,23.2v56.2H420z"/>
	<path class="st0" d="M469.3,140.8V88.2c0-9.6-3-14.2-12.2-14.2c-4,0-7.3,0.7-10.6,2.3v-0.7c5.3-7.6,15.9-14.2,26.1-14.2
		c14.9,0,18.9,9.3,18.9,23.2v56.2H469.3z"/>
	<polygon class="st0" points="100.8,140.8 59.2,28.3 85,28.3 128.3,140.8 	"/>
</g>
</svg>
